<svg xmlns="http://www.w3.org/2000/svg" viewBox="0 0 800 400">
  <defs>
    <linearGradient id="bgGrad" x1="0%" y1="0%" x2="100%" y2="100%">
      <stop offset="0%" style="stop-color:#0f0f1a"/>
      <stop offset="100%" style="stop-color:#1a1a2e"/>
    </linearGradient>
  </defs>
  
  <!-- Background -->
  <rect width="800" height="400" fill="url(#bgGrad)"/>
  
  <!-- Container -->
  <rect x="30" y="30" width="740" height="340" rx="16" fill="rgba(20,20,35,0.9)" stroke="rgba(255,255,255,0.08)"/>
  
  <!-- Header -->
  <text x="60" y="65" fill="#fff" font-size="16" font-weight="bold" font-family="system-ui">🔔 Alert Stream</text>
  <text x="175" y="65" fill="#888" font-size="12" font-family="system-ui">247 alerts</text>
  
  <!-- Filter buttons -->
  <rect x="400" y="45" width="50" height="28" rx="6" fill="rgba(255,255,255,0.15)"/>
  <text x="425" y="63" text-anchor="middle" fill="#fff" font-size="11" font-weight="bold" font-family="system-ui">All</text>
  
  <rect x="460" y="45" width="65" height="28" rx="6" fill="rgba(239,68,68,0.2)"/>
  <text x="492" y="63" text-anchor="middle" fill="#ef4444" font-size="11" font-family="system-ui">Critical</text>
  
  <rect x="535" y="45" width="50" height="28" rx="6" fill="rgba(249,115,22,0.2)"/>
  <text x="560" y="63" text-anchor="middle" fill="#f97316" font-size="11" font-family="system-ui">High</text>
  
  <rect x="595" y="45" width="65" height="28" rx="6" fill="rgba(234,179,8,0.2)"/>
  <text x="627" y="63" text-anchor="middle" fill="#eab308" font-size="11" font-family="system-ui">Medium</text>
  
  <rect x="670" y="45" width="50" height="28" rx="6" fill="rgba(34,197,94,0.2)"/>
  <text x="695" y="63" text-anchor="middle" fill="#22c55e" font-size="11" font-family="system-ui">Low</text>
  
  <!-- Table header -->
  <line x1="60" y1="85" x2="720" y2="85" stroke="rgba(255,255,255,0.1)"/>
  <text x="60" y="105" fill="#666" font-size="10" font-weight="bold" font-family="system-ui">TIME</text>
  <text x="160" y="105" fill="#666" font-size="10" font-weight="bold" font-family="system-ui">AGENT</text>
  <text x="300" y="105" fill="#666" font-size="10" font-weight="bold" font-family="system-ui">RULE DESCRIPTION</text>
  <text x="620" y="105" fill="#666" font-size="10" font-weight="bold" font-family="system-ui">SEVERITY</text>
  <line x1="60" y1="115" x2="720" y2="115" stroke="rgba(255,255,255,0.05)"/>
  
  <!-- Alert rows -->
  <!-- Row 1 - Critical -->
  <rect x="50" y="120" width="700" height="40" rx="4" fill="rgba(239,68,68,0.05)"/>
  <text x="60" y="145" fill="#888" font-size="11" font-family="system-ui">10:32:15</text>
  <text x="160" y="145" fill="#fff" font-size="11" font-family="system-ui">web-server-01</text>
  <text x="300" y="145" fill="#fff" font-size="11" font-family="system-ui">Brute force attack detected - multiple failed SSH attempts</text>
  <rect x="620" y="132" width="60" height="22" rx="4" fill="rgba(239,68,68,0.25)"/>
  <text x="650" y="147" text-anchor="middle" fill="#ef4444" font-size="10" font-weight="bold" font-family="system-ui">Critical</text>
  
  <!-- Row 2 - High -->
  <text x="60" y="180" fill="#888" font-size="11" font-family="system-ui">10:31:42</text>
  <text x="160" y="180" fill="#fff" font-size="11" font-family="system-ui">db-primary</text>
  <text x="300" y="180" fill="#fff" font-size="11" font-family="system-ui">Suspicious SQL injection pattern in query</text>
  <rect x="620" y="167" width="50" height="22" rx="4" fill="rgba(249,115,22,0.25)"/>
  <text x="645" y="182" text-anchor="middle" fill="#f97316" font-size="10" font-weight="bold" font-family="system-ui">High</text>
  
  <!-- Row 3 - Critical -->
  <rect x="50" y="195" width="700" height="40" rx="4" fill="rgba(239,68,68,0.05)"/>
  <text x="60" y="220" fill="#888" font-size="11" font-family="system-ui">10:30:58</text>
  <text x="160" y="220" fill="#fff" font-size="11" font-family="system-ui">endpoint-pc12</text>
  <text x="300" y="220" fill="#fff" font-size="11" font-family="system-ui">Ransomware signature detected in file operation</text>
  <rect x="620" y="207" width="60" height="22" rx="4" fill="rgba(239,68,68,0.25)"/>
  <text x="650" y="222" text-anchor="middle" fill="#ef4444" font-size="10" font-weight="bold" font-family="system-ui">Critical</text>
  
  <!-- Row 4 - Medium -->
  <text x="60" y="255" fill="#888" font-size="11" font-family="system-ui">10:29:33</text>
  <text x="160" y="255" fill="#fff" font-size="11" font-family="system-ui">firewall-01</text>
  <text x="300" y="255" fill="#fff" font-size="11" font-family="system-ui">Port scan detected from external IP address</text>
  <rect x="620" y="242" width="60" height="22" rx="4" fill="rgba(234,179,8,0.25)"/>
  <text x="650" y="257" text-anchor="middle" fill="#eab308" font-size="10" font-weight="bold" font-family="system-ui">Medium</text>
  
  <!-- Row 5 - High -->
  <text x="60" y="290" fill="#888" font-size="11" font-family="system-ui">10:28:17</text>
  <text x="160" y="290" fill="#fff" font-size="11" font-family="system-ui">app-server-03</text>
  <text x="300" y="290" fill="#fff" font-size="11" font-family="system-ui">C2 communication attempt to known malicious domain</text>
  <rect x="620" y="277" width="50" height="22" rx="4" fill="rgba(249,115,22,0.25)"/>
  <text x="645" y="292" text-anchor="middle" fill="#f97316" font-size="10" font-weight="bold" font-family="system-ui">High</text>
  
  <!-- Row 6 - Low -->
  <text x="60" y="325" fill="#888" font-size="11" font-family="system-ui">10:27:45</text>
  <text x="160" y="325" fill="#fff" font-size="11" font-family="system-ui">mail-server</text>
  <text x="300" y="325" fill="#fff" font-size="11" font-family="system-ui">Failed authentication attempt - user locked out</text>
  <rect x="620" y="312" width="45" height="22" rx="4" fill="rgba(34,197,94,0.25)"/>
  <text x="642" y="327" text-anchor="middle" fill="#22c55e" font-size="10" font-weight="bold" font-family="system-ui">Low</text>
  
  <!-- Footer -->
  <text x="400" y="360" text-anchor="middle" fill="#666" font-size="10" font-family="system-ui">Auto-refreshing every 10 seconds • Last update: 10:32:18</text>
</svg>